<?xml version="1.0" encoding="utf-8"?>
<!-- Generator: Adobe Illustrator 23.0.3, SVG Export Plug-In . SVG Version: 6.00 Build 0)  -->
<svg version="1.1" id="Icons" xmlns="http://www.w3.org/2000/svg" xmlns:xlink="http://www.w3.org/1999/xlink" x="0px" y="0px"
	 viewBox="0 0 32 32" style="enable-background:new 0 0 32 32;" xml:space="preserve" fill="#2E0014">
<g>
	<path d="M27,28H5c-0.6,0-1,0.4-1,1s0.4,1,1,1h22c0.6,0,1-0.4,1-1S27.6,28,27,28z"/>
	<path d="M9.2,25.7C9.4,25.9,9.6,26,9.9,26H17c0.3,0,0.5-0.1,0.7-0.3l10.1-10.1c1.9-1.9,1.9-5.1,0-7.1l-4.3-4.3
		c-1.9-1.9-5.1-1.9-7.1,0l-5,5c0,0,0,0,0,0s0,0,0,0L5.6,15c-1.9,1.9-1.9,5.1,0,7.1L9.2,25.7z M7,16.4l5-5l8.6,8.6l-4,4h-6.3L7,20.7
		C5.8,19.5,5.8,17.6,7,16.4z"/>
</g>
</svg>
