<?xml version="1.0" encoding="utf-8"?>
<!-- Generator: Adobe Illustrator 23.0.3, SVG Export Plug-In . SVG Version: 6.00 Build 0)  -->
<svg version="1.1" id="Icons" xmlns="http://www.w3.org/2000/svg" xmlns:xlink="http://www.w3.org/1999/xlink" x="0px" y="0px"
	 viewBox="0 0 32 32" style="enable-background:new 0 0 32 32;" xml:space="preserve" fill="#2E0014">
	<g>
		<path d="M8,20c-0.6,0-1-0.4-1-1v-2c0-0.6,0.4-1,1-1s1,0.4,1,1v2C9,19.6,8.6,20,8,20z"/>
	</g>
	<g>
		<path d="M25,28H7c-1.7,0-3-1.3-3-3V11c0-1.7,1.3-3,3-3h16c0.6,0,1,0.4,1,1s-0.4,1-1,1H7c-0.6,0-1,0.4-1,1v14c0,0.6,0.4,1,1,1h18
			c0.6,0,1-0.4,1-1V11c0-0.3-0.1-0.6-0.4-0.8c-0.4-0.3-0.5-1-0.2-1.4c0.3-0.4,1-0.5,1.4-0.2C27.6,9.2,28,10.1,28,11v14
			C28,26.7,26.7,28,25,28z"/>
	</g>
	<g>
		<path d="M15.6,22H11c-0.5,0-0.9-0.4-1-0.8c-0.1-0.5,0.2-1,0.7-1.1c0.6-0.2,0.9-0.7,0.9-1.4v-0.7c0-1.2,0.5-2.3,1.3-3.2
			c0.8-0.8,1.8-1.2,2.9-1.2l0,0c2.2,0.1,4,1.9,4,4.1c0,1.1-0.4,2.2-1.2,3C17.9,21.5,16.8,22,15.6,22z"/>
	</g>
	<path d="M29.4,4.6C29.4,4.6,29.4,4.6,29.4,4.6c-0.8-0.8-2.1-0.8-2.9,0l-8.3,7.5c1.6,0.7,2.9,2.1,3.5,3.8l7.8-8.4
		C30.2,6.7,30.2,5.4,29.4,4.6z"/>
</svg>