<?xml version="1.0" encoding="UTF-8" standalone="no"?> <svg width="64" height="64" viewBox="0 0 64 64" fill="none" xmlns="http://www.w3.org/2000/svg">
<path d="M57.94 9.12989L53.94 5.12989C53.4293 4.6189 52.8228 4.21354 52.1554 3.93698C51.4879 3.66041 50.7725 3.51807 50.05 3.51807C49.3275 3.51807 48.6121 3.66041 47.9447 3.93698C47.2772 4.21354 46.6708 4.6189 46.16 5.12989L7.17002 43.9999C6.99825 44.1774 6.87139 44.3934 6.80002 44.6299L2.56002 58.5899C2.48301 58.8494 2.47767 59.125 2.54457 59.3873C2.61147 59.6496 2.74812 59.8889 2.94002 60.0799C3.07817 60.2206 3.2432 60.332 3.42531 60.4076C3.60741 60.4832 3.80286 60.5214 4.00002 60.5199C4.14871 60.5196 4.29668 60.4994 4.44002 60.4599L18.37 56.2299C18.606 56.1588 18.8196 56.0279 18.99 55.8499L57.99 16.9099C59.0105 15.8692 59.578 14.4671 59.5687 13.0096C59.5593 11.5521 58.9738 10.1574 57.94 9.12989V9.12989ZM6.25002 56.7699L8.94002 47.9199L15.1 54.0799L6.25002 56.7699ZM55.82 14.7699L50.71 19.8799L43.13 12.3099L48.24 7.19989C48.4723 6.96708 48.7481 6.78236 49.0519 6.65633C49.3556 6.5303 49.6812 6.46542 50.01 6.46542C50.3389 6.46542 50.6645 6.5303 50.9682 6.65633C51.2719 6.78236 51.5478 6.96708 51.78 7.19989L55.78 11.1999C56.0215 11.4301 56.2145 11.7064 56.3476 12.0123C56.4806 12.3183 56.5511 12.6478 56.5548 12.9815C56.5586 13.3151 56.4955 13.6461 56.3693 13.955C56.2431 14.2638 56.0563 14.5443 55.82 14.7799V14.7699Z" fill="black"/>
<path d="M59.9999 57.5198H25.4299C25.0321 57.5198 24.6506 57.6778 24.3693 57.9591C24.088 58.2404 23.9299 58.622 23.9299 59.0198C23.9299 59.4176 24.088 59.7991 24.3693 60.0804C24.6506 60.3617 25.0321 60.5198 25.4299 60.5198H59.9999C60.3978 60.5198 60.7793 60.3617 61.0606 60.0804C61.3419 59.7991 61.4999 59.4176 61.4999 59.0198C61.4999 58.622 61.3419 58.2404 61.0606 57.9591C60.7793 57.6778 60.3978 57.5198 59.9999 57.5198V57.5198Z" fill="black"/>
</svg>
