<?xml version="1.0" encoding="UTF-8" standalone="no"?> <svg width="24" height="24" viewBox="0 0 24 24" fill="none" xmlns="http://www.w3.org/2000/svg">
<path d="M17.9999 21C17.8278 20.9996 17.6587 20.9549 17.5089 20.87L11.8359 17.663L6.5129 20.863C6.36079 20.9539 6.18725 21.0028 6.01005 21.0046C5.83285 21.0064 5.65836 20.961 5.50443 20.8732C5.3505 20.7854 5.22267 20.6583 5.13402 20.5049C5.04537 20.3514 4.99908 20.1772 4.9999 20V5.334C4.9832 4.73305 5.20536 4.14997 5.61772 3.7125C6.03008 3.27503 6.59901 3.01882 7.1999 3H16.7999C17.4007 3.01908 17.9695 3.27537 18.3818 3.71278C18.7941 4.1502 19.0163 4.73312 18.9999 5.334V20C18.9999 20.2652 18.8945 20.5196 18.707 20.7071C18.5195 20.8946 18.2651 21 17.9999 21ZM11.8209 15.506C11.9933 15.5059 12.1628 15.5503 12.3129 15.635L16.9999 18.286V5.334C16.9999 5.134 16.8799 5 16.7999 5H7.1999C7.1199 5 6.9999 5.133 6.9999 5.334V18.234L11.3059 15.648C11.4615 15.5548 11.6395 15.5058 11.8209 15.506Z" fill="black"/>
</svg>
